<svg width="230" height="230" viewBox="0 0 230 230" fill="none" xmlns="http://www.w3.org/2000/svg">
<g clip-path="url(#clip0_316_46)">
<path d="M129.75 8.09327L199.343 48.2728C208.47 53.5424 214.093 63.2812 214.093 73.8205V154.179C214.093 164.719 208.47 174.458 199.343 179.727L129.75 219.907C120.623 225.176 109.377 225.176 100.25 219.907L30.6571 179.727C21.5298 174.458 15.9071 164.719 15.9071 154.179V73.8205C15.9071 63.2812 21.5297 53.5424 30.6571 48.2728L100.25 8.09327C109.377 2.8236 120.623 2.8236 129.75 8.09327Z" fill="#0077FF" fill-opacity="0.1" stroke="#0077FF"/>
<path fill-rule="evenodd" clip-rule="evenodd" d="M72 47H123.179C144.022 47 157.833 59.7423 157.833 78.8688C157.833 88.1518 154.733 95.7534 148.138 102.322C160.933 110.554 168.158 123.296 168.158 137.501C168.158 163.432 144.653 182.97 113.274 182.97H72V47ZM111.61 165.28C132.874 165.28 148.559 153.133 148.559 136.695C148.559 127.027 142.98 117.779 133.916 112.402C127.085 115.896 119.063 119.206 109.342 122.49C98.4216 125.976 90.5835 135.049 90.5835 144.297V165.28H111.61ZM90.5485 114.88H91.1791C93.2371 110.939 98.8157 107.664 111.19 103.749C129.353 97.7851 138.207 89.9646 138.207 79.7008C138.207 70.6279 131.411 64.699 121.095 64.699H90.5485V114.88Z" fill="#0077FF"/>
</g>
<defs>
<clipPath id="clip0_316_46">
<rect width="230" height="230" fill="white"/>
</clipPath>
</defs>
</svg>